HIERARCHY
ROOT mixamorig:Hips
{
	OFFSET 0.000000 104.274902 0.000000
	CHANNELS 6 Xposition Yposition Zposition Xrotation Yrotation Zrotation
	JOINT mixamorig:Spine
	{
		OFFSET 0.000000 10.181549 0.131524
		CHANNELS 6 Xposition Yposition Zposition Xrotation Yrotation Zrotation
		JOINT mixamorig:Spine1
		{
			OFFSET 0.000000 9.893990 -1.470706
			CHANNELS 3 Xrotation Yrotation Zrotation
			JOINT mixamorig:Spine2
			{
				OFFSET 0.000000 9.220787 -1.370637
				CHANNELS 3 Xrotation Yrotation Zrotation
				JOINT mixamorig:Neck
				{
					OFFSET 0.000000 16.740372 -2.049022
					CHANNELS 6 Xposition Yposition Zposition Xrotation Yrotation Zrotation
					JOINT mixamorig:Head
					{
						OFFSET 0.000000 9.617859 1.684976
						CHANNELS 6 Xposition Yposition Zposition Xrotation Yrotation Zrotation
						JOINT mixamorig:HeadTop_End
						{
							OFFSET 0.000000 22.037384 7.501072
							CHANNELS 6 Xposition Yposition Zposition Xrotation Yrotation Zrotation
							End Site
							{
								OFFSET 0.000000 23.106567 -2.828246
							}
						}
					}
				}
				JOINT mixamorig:RightShoulder
				{
					OFFSET -4.570000 11.014877 -2.160840
					CHANNELS 6 Xposition Yposition Zposition Xrotation Yrotation Zrotation
					JOINT mixamorig:RightArm
					{
						OFFSET -10.592867 -0.524796 -2.232105
						CHANNELS 3 Xrotation Yrotation Zrotation
						JOINT mixamorig:RightForeArm
						{
							OFFSET -27.841497 0.000000 -0.000002
							CHANNELS 3 Xrotation Yrotation Zrotation
							JOINT mixamorig:RightHand
							{
								OFFSET -28.328812 0.000000 -0.000001
								CHANNELS 3 Xrotation Yrotation Zrotation
								JOINT mixamorig:RightHandThumb1
								{
									OFFSET -2.464798 -1.573990 2.681911
									CHANNELS 6 Xposition Yposition Zposition Xrotation Yrotation Zrotation
									JOINT mixamorig:RightHandThumb2
									{
										OFFSET -3.244781 -1.873383 1.873376
										CHANNELS 3 Xrotation Yrotation Zrotation
										JOINT mixamorig:RightHandThumb3
										{
											OFFSET -2.646263 -1.527817 1.527818
											CHANNELS 6 Xposition Yposition Zposition Xrotation Yrotation Zrotation
											JOINT mixamorig:RightHandThumb4
											{
												OFFSET -1.994591 -1.151581 1.151575
												CHANNELS 6 Xposition Yposition Zposition Xrotation Yrotation Zrotation
												End Site
												{
													OFFSET -1.860176 -1.142715 1.365483
												}
											}
										}
									}
								}
								JOINT mixamorig:RightHandIndex1
								{
									OFFSET -9.108299 -0.517883 2.259803
									CHANNELS 6 Xposition Yposition Zposition Xrotation Yrotation Zrotation
									JOINT mixamorig:RightHandIndex2
									{
										OFFSET -3.699997 0.000000 0.000000
										CHANNELS 3 Xrotation Yrotation Zrotation
										JOINT mixamorig:RightHandIndex3
										{
											OFFSET -2.850006 0.000000 0.000000
											CHANNELS 3 Xrotation Yrotation Zrotation
											JOINT mixamorig:RightHandIndex4
											{
												OFFSET -2.772194 0.000000 0.000000
												CHANNELS 3 Xrotation Yrotation Zrotation
												End Site
												{
													OFFSET -2.772202 0.000000 -0.000484
												}
											}
										}
									}
								}
								JOINT mixamorig:RightHandMiddle1
								{
									OFFSET -9.532501 0.000000 -0.000000
									CHANNELS 6 Xposition Yposition Zposition Xrotation Yrotation Zrotation
									JOINT mixamorig:RightHandMiddle2
									{
										OFFSET -3.699997 0.000000 0.000000
										CHANNELS 3 Xrotation Yrotation Zrotation
										JOINT mixamorig:RightHandMiddle3
										{
											OFFSET -2.949997 0.000000 0.000000
											CHANNELS 3 Xrotation Yrotation Zrotation
											JOINT mixamorig:RightHandMiddle4
											{
												OFFSET -2.946594 0.000000 0.000000
												CHANNELS 3 Xrotation Yrotation Zrotation
												End Site
												{
													OFFSET -2.946602 0.000000 -0.000982
												}
											}
										}
									}
								}
								JOINT mixamorig:RightHandRing1
								{
									OFFSET -9.103600 -0.043106 -1.865100
									CHANNELS 6 Xposition Yposition Zposition Xrotation Yrotation Zrotation
									JOINT mixamorig:RightHandRing2
									{
										OFFSET -3.379303 0.000000 0.000000
										CHANNELS 3 Xrotation Yrotation Zrotation
										JOINT mixamorig:RightHandRing3
										{
											OFFSET -2.889694 0.000000 0.000000
											CHANNELS 3 Xrotation Yrotation Zrotation
											JOINT mixamorig:RightHandRing4
											{
												OFFSET -2.638802 0.000000 0.000000
												CHANNELS 3 Xrotation Yrotation Zrotation
												End Site
												{
													OFFSET -2.638802 0.000000 0.004218
												}
											}
										}
									}
								}
								JOINT mixamorig:RightHandPinky1
								{
									OFFSET -8.076698 -0.486725 -3.806299
									CHANNELS 6 Xposition Yposition Zposition Xrotation Yrotation Zrotation
									JOINT mixamorig:RightHandPinky2
									{
										OFFSET -3.600006 0.000000 0.000000
										CHANNELS 3 Xrotation Yrotation Zrotation
										JOINT mixamorig:RightHandPinky3
										{
											OFFSET -2.099998 0.000000 0.000000
											CHANNELS 3 Xrotation Yrotation Zrotation
											JOINT mixamorig:RightHandPinky4
											{
												OFFSET -2.115791 0.000000 0.000000
												CHANNELS 3 Xrotation Yrotation Zrotation
												End Site
												{
													OFFSET -2.115799 0.000000 0.000174
												}
											}
										}
									}
								}
							}
						}
					}
				}
				JOINT mixamorig:LeftShoulder
				{
					OFFSET 4.570400 11.014679 -2.160816
					CHANNELS 6 Xposition Yposition Zposition Xrotation Yrotation Zrotation
					JOINT mixamorig:LeftArm
					{
						OFFSET 10.592373 -0.524597 -2.232116
						CHANNELS 3 Xrotation Yrotation Zrotation
						JOINT mixamorig:LeftForeArm
						{
							OFFSET 27.841488 0.000000 0.000001
							CHANNELS 3 Xrotation Yrotation Zrotation
							JOINT mixamorig:LeftHand
							{
								OFFSET 28.328808 0.000000 -0.000000
								CHANNELS 3 Xrotation Yrotation Zrotation
								JOINT mixamorig:LeftHandThumb1
								{
									OFFSET 2.466103 -1.576202 2.681698
									CHANNELS 6 Xposition Yposition Zposition Xrotation Yrotation Zrotation
									JOINT mixamorig:LeftHandThumb2
									{
										OFFSET 3.243317 -1.872528 1.872530
										CHANNELS 3 Xrotation Yrotation Zrotation
										JOINT mixamorig:LeftHandThumb3
										{
											OFFSET 2.647881 -1.528763 1.528754
											CHANNELS 6 Xposition Yposition Zposition Xrotation Yrotation Zrotation
											JOINT mixamorig:LeftHandThumb4
											{
												OFFSET 1.998924 -1.154083 1.154080
												CHANNELS 6 Xposition Yposition Zposition Xrotation Yrotation Zrotation
												End Site
												{
													OFFSET 1.884041 -1.149155 1.337651
												}
											}
										}
									}
								}
								JOINT mixamorig:LeftHandIndex1
								{
									OFFSET 9.109299 -0.518005 2.259900
									CHANNELS 6 Xposition Yposition Zposition Xrotation Yrotation Zrotation
									JOINT mixamorig:LeftHandIndex2
									{
										OFFSET 3.699997 0.000000 0.000000
										CHANNELS 3 Xrotation Yrotation Zrotation
										JOINT mixamorig:LeftHandIndex3
										{
											OFFSET 2.850006 0.000000 0.000000
											CHANNELS 3 Xrotation Yrotation Zrotation
											JOINT mixamorig:LeftHandIndex4
											{
												OFFSET 2.774895 0.000000 0.000000
												CHANNELS 3 Xrotation Yrotation Zrotation
												End Site
												{
													OFFSET 2.774902 0.000000 -0.000072
												}
											}
										}
									}
								}
								JOINT mixamorig:LeftHandMiddle1
								{
									OFFSET 9.533401 0.000000 0.000000
									CHANNELS 6 Xposition Yposition Zposition Xrotation Yrotation Zrotation
									JOINT mixamorig:LeftHandMiddle2
									{
										OFFSET 3.699997 0.000000 0.000000
										CHANNELS 3 Xrotation Yrotation Zrotation
										JOINT mixamorig:LeftHandMiddle3
										{
											OFFSET 2.949997 0.000000 0.000000
											CHANNELS 3 Xrotation Yrotation Zrotation
											JOINT mixamorig:LeftHandMiddle4
											{
												OFFSET 2.952896 0.000000 0.000000
												CHANNELS 3 Xrotation Yrotation Zrotation
												End Site
												{
													OFFSET 2.952904 0.000000 0.000165
												}
											}
										}
									}
								}
								JOINT mixamorig:LeftHandRing1
								{
									OFFSET 9.104500 -0.042999 -1.865101
									CHANNELS 6 Xposition Yposition Zposition Xrotation Yrotation Zrotation
									JOINT mixamorig:LeftHandRing2
									{
										OFFSET 3.149994 0.000000 0.000000
										CHANNELS 3 Xrotation Yrotation Zrotation
										JOINT mixamorig:LeftHandRing3
										{
											OFFSET 2.950005 0.000000 0.000000
											CHANNELS 3 Xrotation Yrotation Zrotation
											JOINT mixamorig:LeftHandRing4
											{
												OFFSET 2.644302 0.000000 0.000000
												CHANNELS 3 Xrotation Yrotation Zrotation
												End Site
												{
													OFFSET 2.644302 0.000000 0.000083
												}
											}
										}
									}
								}
								JOINT mixamorig:LeftHandPinky1
								{
									OFFSET 8.077805 -0.486893 -3.806302
									CHANNELS 6 Xposition Yposition Zposition Xrotation Yrotation Zrotation
									JOINT mixamorig:LeftHandPinky2
									{
										OFFSET 3.600006 0.000000 0.000000
										CHANNELS 3 Xrotation Yrotation Zrotation
										JOINT mixamorig:LeftHandPinky3
										{
											OFFSET 2.099998 0.000000 0.000000
											CHANNELS 3 Xrotation Yrotation Zrotation
											JOINT mixamorig:LeftHandPinky4
											{
												OFFSET 2.125496 0.000000 0.000000
												CHANNELS 3 Xrotation Yrotation Zrotation
												End Site
												{
													OFFSET 2.125504 0.000000 -0.001254
												}
											}
										}
									}
								}
							}
						}
					}
				}
			}
		}
	}
	JOINT mixamorig:RightUpLeg
	{
		OFFSET -8.207800 -6.751701 -1.599544
		CHANNELS 6 Xposition Yposition Zposition Xrotation Yrotation Zrotation
		JOINT mixamorig:RightLeg
		{
			OFFSET 0.000004 -44.370152 0.345934
			CHANNELS 3 Xrotation Yrotation Zrotation
			JOINT mixamorig:RightFoot
			{
				OFFSET 0.000004 -44.423664 -3.043535
				CHANNELS 3 Xrotation Yrotation Zrotation
				JOINT mixamorig:RightToeBase
				{
					OFFSET 0.000001 -8.728691 10.710592
					CHANNELS 3 Xrotation Yrotation Zrotation
					JOINT mixamorig:RightToe_End
					{
						OFFSET 0.000000 -0.000665 9.278101
						CHANNELS 3 Xrotation Yrotation Zrotation
						End Site
						{
							OFFSET 0.000000 -0.000665 9.278103
						}
					}
				}
			}
		}
	}
	JOINT mixamorig:LeftUpLeg
	{
		OFFSET 8.207800 -6.751701 -1.599544
		CHANNELS 6 Xposition Yposition Zposition Xrotation Yrotation Zrotation
		JOINT mixamorig:LeftLeg
		{
			OFFSET 0.000004 -44.370037 0.346940
			CHANNELS 3 Xrotation Yrotation Zrotation
			JOINT mixamorig:LeftFoot
			{
				OFFSET 0.000004 -44.423611 -3.044388
				CHANNELS 3 Xrotation Yrotation Zrotation
				JOINT mixamorig:LeftToeBase
				{
					OFFSET 0.000001 -8.728690 10.710592
					CHANNELS 3 Xrotation Yrotation Zrotation
					JOINT mixamorig:LeftToe_End
					{
						OFFSET 0.000000 -0.000680 9.278101
						CHANNELS 3 Xrotation Yrotation Zrotation
						End Site
						{
							OFFSET 0.000000 -0.000680 9.278101
						}
					}
				}
			}
		}
	}
}
MOTION
Frames: 4
Frame Time: 0.033333
-4.127062 84.079842 1.668215 4.625789 -51.149504 -1.547475 0.000001 10.181544 0.131524 5.564987 0.796767 2.892610 11.401785 1.207179 3.023734 11.390829 1.323212 3.005633 -0.000000 16.740372 -2.049016 -2.217037 5.946758 0.736838 -0.000008 9.617839 1.684981 6.299370 33.289119 -26.855928 0.000001 22.037384 7.501075 0.000003 0.000000 -0.000000 -4.570002 11.014889 -2.160834 -0.028357 -0.965046 -6.132159 -33.249108 31.365294 64.805470 0.000316 100.356775 -0.000269 -2.979955 22.078691 1.945885 -2.464794 -1.573997 2.681913 20.791449 -26.827287 29.227308 107.876759 -60.017180 67.953518 -2.646261 -1.527803 1.527825 26.887912 -38.791725 11.080624 -1.994598 -1.151585 1.151579 -0.000002 -0.000006 -0.000000 -9.108318 -0.517888 2.259811 7.883455 -6.885282 97.754227 8.081441 -6.855634 99.409210 2.438643 -5.291441 49.462160 0.000000 -0.000001 0.000002 -9.532501 -0.000001 0.000007 7.883452 -6.885287 97.754227 8.081441 -6.855637 99.409210 2.438639 -5.291441 49.462164 -0.000003 -0.000003 -0.000001 -9.103614 -0.043109 -1.865091 7.883454 -6.885283 97.754227 8.081441 -6.855634 99.409210 2.438641 -5.291439 49.462164 0.000002 -0.000002 -0.000001 -8.076705 -0.486726 -3.806296 7.883453 -6.885288 97.754227 8.081444 -6.855646 99.409210 2.438641 -5.291445 49.462157 -0.000000 0.000000 0.000003 4.570400 11.014686 -2.160809 0.323127 4.486081 -5.825416 -38.415224 3.146332 -47.762232 0.000038 -80.598213 0.000018 -6.734973 -17.839815 -17.850197 2.466105 -1.576213 2.681698 15.482517 -7.506407 -9.163101 104.737522 41.403364 -77.048557 2.647909 -1.528737 1.528762 31.635527 38.024869 -24.163572 1.998924 -1.154080 1.154082 0.000003 -0.000002 -0.000000 9.109309 -0.517996 2.259900 8.128253 6.767981 -100.465696 7.639898 6.839624 -96.345071 2.277864 5.120337 -47.943936 -0.000000 0.000000 -0.000001 9.533408 -0.000025 -0.000006 8.126329 6.768317 -100.449468 7.641803 6.839409 -96.361299 2.277858 5.120344 -47.943936 0.000000 -0.000002 -0.000001 9.104504 -0.043012 -1.865102 8.128252 6.767979 -100.465696 7.639898 6.839626 -96.345071 2.277861 5.120335 -47.943939 -0.000003 0.000001 -0.000001 8.077814 -0.486899 -3.806306 12.140494 6.033407 -100.402708 7.637076 2.753465 -96.311753 2.277855 5.120347 -47.943932 0.000000 0.000001 -0.000001 -8.207809 -6.751716 -1.599541 -31.750510 -10.702036 -28.169413 49.189964 8.933181 -7.869828 -19.287047 -4.548686 28.141296 -0.000019 -0.000016 -0.000002 0.000000 0.000003 0.000000 8.207795 -6.751712 -1.599543 -46.223616 4.606750 42.547178 47.216930 -9.390124 2.034418 -11.932515 -16.459035 -25.323165 -0.000016 0.000002 -0.000002 -0.000000 0.000000 0.000000 
-3.616379 85.019981 2.223456 5.946334 -51.593596 -0.269909 -0.000000 10.181566 0.131524 5.405240 0.788990 2.523801 11.072558 1.171586 2.535112 11.063245 1.269810 2.519642 0.000001 16.740383 -2.049020 -1.692948 5.765580 0.897720 -0.000002 9.617856 1.684979 6.745537 32.718792 -26.387674 0.000001 22.037384 7.501081 -0.000001 0.000000 -0.000000 -4.569999 11.014865 -2.160838 -0.013204 -0.928236 -5.872786 -28.918922 30.693859 60.939385 0.000350 100.883786 -0.000288 -2.822347 22.365080 1.971185 -2.464786 -1.574000 2.681903 20.791454 -26.827286 29.227305 107.876752 -60.017173 67.953504 -2.646276 -1.527791 1.527815 26.887911 -38.791721 11.080624 -1.994606 -1.151561 1.151561 -0.000003 -0.000002 0.000003 -9.108316 -0.517887 2.259797 7.883457 -6.885283 97.754227 8.081441 -6.855639 99.409210 2.438642 -5.291439 49.462160 -0.000002 0.000002 0.000001 -9.532514 0.000004 -0.000007 7.883461 -6.885284 97.754227 8.081441 -6.855636 99.409210 2.438639 -5.291441 49.462160 -0.000000 0.000003 0.000001 -9.103595 -0.043108 -1.865111 7.883457 -6.885284 97.754227 8.081441 -6.855639 99.409210 2.438640 -5.291442 49.462167 -0.000003 -0.000000 0.000002 -8.076686 -0.486723 -3.806301 7.883460 -6.885291 97.754227 8.081441 -6.855640 99.409210 2.438641 -5.291443 49.462154 -0.000001 -0.000007 -0.000000 4.570403 11.014688 -2.160809 0.305488 4.578185 -5.616238 -35.798719 4.391160 -44.964133 0.000013 -81.909042 0.000015 -8.105393 -17.058910 -18.893893 2.466097 -1.576217 2.681690 15.482523 -7.506404 -9.163096 104.737522 41.403360 -77.048557 2.647901 -1.528741 1.528760 31.635520 38.024865 -24.163572 1.998917 -1.154090 1.154079 0.000000 0.000003 -0.000000 9.109300 -0.518015 2.259897 8.128253 6.767983 -100.465696 7.639898 6.839624 -96.345071 2.277864 5.120336 -47.943936 -0.000000 -0.000002 0.000001 9.533420 -0.000015 -0.000006 8.126332 6.768319 -100.449461 7.641803 6.839406 -96.361299 2.277861 5.120343 -47.943936 0.000007 0.000000 -0.000003 9.104491 -0.043016 -1.865104 8.128252 6.767983 -100.465696 7.639897 6.839624 -96.345071 2.277864 5.120337 -47.943936 0.000000 0.000001 -0.000001 8.077796 -0.486895 -3.806307 12.140496 6.033409 -100.402708 7.637074 2.753463 -96.311753 2.277857 5.120348 -47.943932 0.000003 0.000004 -0.000002 -8.207802 -6.751702 -1.599539 -31.300985 -10.842445 -27.866794 45.836505 8.924266 -8.088552 -17.077095 -4.527733 28.195093 -0.000009 0.000005 0.000001 -0.000000 0.000000 0.000000 8.207796 -6.751693 -1.599543 -45.606457 5.105096 41.405556 45.873439 -9.224558 1.841290 -11.419159 -15.085801 -24.770613 -0.000015 0.000000 0.000000 -0.000000 0.000000 0.000000 
-3.014415 85.844849 2.652935 7.754658 -51.830931 1.296451 -0.000001 10.181545 0.131523 5.213957 0.839444 2.167655 10.690750 1.227382 2.036330 10.682201 1.310070 2.022629 -0.000001 16.740366 -2.049022 -1.476513 5.555343 1.041792 -0.000003 9.617863 1.684970 6.445264 32.004801 -25.839461 -0.000000 22.037369 7.501070 0.000002 0.000001 -0.000000 -4.570003 11.014863 -2.160839 -0.038411 -0.998837 -6.268846 -26.404509 29.414633 58.450102 0.000230 101.548097 -0.000191 -3.050036 22.663435 1.976262 -2.464787 -1.574006 2.681911 20.791453 -26.827281 29.227298 107.876752 -60.017173 67.953518 -2.646265 -1.527813 1.527818 26.887921 -38.791721 11.080615 -1.994601 -1.151572 1.151570 -0.000000 0.000003 0.000004 -9.108316 -0.517887 2.259807 7.883460 -6.885282 97.754227 8.081439 -6.855634 99.409210 2.438641 -5.291438 49.462164 -0.000003 -0.000000 0.000001 -9.532499 0.000003 -0.000001 7.883456 -6.885283 97.754227 8.081442 -6.855641 99.409210 2.438643 -5.291441 49.462164 0.000004 -0.000003 0.000001 -9.103596 -0.043110 -1.865102 7.883459 -6.885283 97.754227 8.081442 -6.855640 99.409210 2.438646 -5.291438 49.462167 -0.000001 -0.000002 0.000004 -8.076701 -0.486742 -3.806302 7.883458 -6.885288 97.754227 8.081440 -6.855638 99.409210 2.438641 -5.291443 49.462157 -0.000000 0.000002 0.000002 4.570402 11.014672 -2.160816 0.247307 4.691543 -4.852705 -35.189715 5.731689 -43.099522 -0.000019 -82.630146 -0.000017 -8.946792 -17.177531 -20.139503 2.466113 -1.576217 2.681688 15.482521 -7.506408 -9.163101 104.737509 41.403370 -77.048564 2.647882 -1.528748 1.528751 31.635527 38.024862 -24.163570 1.998924 -1.154078 1.154074 0.000000 0.000002 0.000003 9.109288 -0.517998 2.259900 8.128251 6.767983 -100.465696 7.639895 6.839620 -96.345071 2.277864 5.120337 -47.943939 0.000002 -0.000001 -0.000001 9.533408 -0.000003 -0.000009 8.126329 6.768320 -100.449468 7.641803 6.839411 -96.361299 2.277862 5.120342 -47.943936 0.000003 0.000000 -0.000003 9.104496 -0.043003 -1.865107 8.128251 6.767983 -100.465696 7.639898 6.839624 -96.345071 2.277865 5.120338 -47.943939 0.000004 -0.000001 -0.000005 8.077800 -0.486891 -3.806298 12.140488 6.033407 -100.402708 7.637078 2.753469 -96.311753 2.277858 5.120348 -47.943936 0.000005 0.000001 -0.000001 -8.207804 -6.751706 -1.599545 -31.096564 -10.867617 -27.456556 42.586858 8.957794 -8.189556 -14.968209 -4.738708 28.002032 -0.000006 0.000028 0.000003 -0.000000 0.000001 0.000000 8.207790 -6.751697 -1.599538 -45.513061 5.293152 40.269580 44.609000 -9.039305 1.622091 -10.730779 -13.792855 -24.193421 -0.000018 0.000000 -0.000002 -0.000000 0.000003 0.000000 
-2.353211 86.380035 2.949462 9.581227 -51.860865 2.751362 0.000000 10.181555 0.131527 5.049959 0.928828 1.895141 10.371728 1.350676 1.623987 10.363241 1.422687 1.610961 0.000003 16.740366 -2.049020 -1.563227 5.387166 1.064263 -0.000008 9.617857 1.684979 5.452639 31.348448 -25.294393 -0.000003 22.037384 7.501070 0.000002 0.000000 0.000000 -4.570000 11.014856 -2.160839 -0.088665 -1.117035 -7.101147 -26.033293 27.876092 57.488521 0.000314 102.249551 -0.000276 -3.812062 22.642999 2.353865 -2.464790 -1.573989 2.681912 20.791453 -26.827286 29.227298 107.876752 -60.017180 67.953518 -2.646266 -1.527780 1.527816 26.887916 -38.791718 11.080621 -1.994602 -1.151585 1.151571 -0.000001 -0.000003 0.000001 -9.108318 -0.517884 2.259801 7.883456 -6.885282 97.754227 8.081441 -6.855636 99.409210 2.438646 -5.291439 49.462164 -0.000003 -0.000001 -0.000001 -9.532501 0.000007 0.000003 7.883456 -6.885283 97.754227 8.081443 -6.855641 99.409210 2.438644 -5.291441 49.462160 -0.000000 0.000003 0.000003 -9.103582 -0.043105 -1.865109 7.883457 -6.885281 97.754227 8.081443 -6.855634 99.409210 2.438646 -5.291438 49.462167 -0.000002 -0.000001 0.000000 -8.076705 -0.486727 -3.806303 7.883459 -6.885286 97.754227 8.081438 -6.855641 99.409210 2.438646 -5.291444 49.462154 0.000003 -0.000002 0.000001 4.570405 11.014664 -2.160814 0.176701 4.800549 -3.935254 -36.393235 6.536395 -42.062378 -0.000026 -82.895902 -0.000018 -9.132251 -17.794501 -20.768198 2.466095 -1.576218 2.681701 15.482519 -7.506404 -9.163098 104.737529 41.403364 -77.048557 2.647889 -1.528731 1.528762 31.635524 38.024862 -24.163577 1.998928 -1.154081 1.154080 -0.000000 0.000000 0.000005 9.109284 -0.518000 2.259917 8.128251 6.767982 -100.465696 7.639898 6.839625 -96.345071 2.277861 5.120333 -47.943943 0.000003 0.000001 -0.000002 9.533404 -0.000000 0.000005 8.126330 6.768316 -100.449461 7.641803 6.839412 -96.361299 2.277860 5.120341 -47.943936 0.000002 -0.000004 0.000000 9.104494 -0.042993 -1.865094 8.128251 6.767982 -100.465696 7.639897 6.839626 -96.345071 2.277863 5.120335 -47.943939 -0.000004 -0.000002 -0.000004 8.077797 -0.486899 -3.806296 12.140496 6.033411 -100.402708 7.637074 2.753464 -96.311753 2.277854 5.120349 -47.943936 -0.000001 -0.000001 -0.000003 -8.207801 -6.751704 -1.599543 -31.181419 -10.779005 -27.104023 39.989166 8.713220 -8.195211 -13.200844 -4.843928 27.940936 -0.000000 -0.000008 0.000002 0.000000 -0.000001 0.000000 8.207797 -6.751701 -1.599539 -45.997759 5.149671 39.369716 43.918410 -8.856477 1.409166 -10.126990 -12.841207 -23.622776 -0.000015 0.000003 -0.000001 -0.000000 0.000000 0.000000 
